<?xml version="1.0" encoding="utf-8"?>
<!-- Generator: Adobe Illustrator 24.0.0, SVG Export Plug-In . SVG Version: 6.00 Build 0)  -->
<svg version="1.1" id="Layer_1" xmlns="http://www.w3.org/2000/svg" xmlns:xlink="http://www.w3.org/1999/xlink" x="0px" y="0px"
	 viewBox="0 0 260 15.6" style="enable-background:new 0 0 260 15.6;" xml:space="preserve">
<style type="text/css">
	.st0{fill:#EE6D72;}
</style>
<path class="st0" d="M260,6c-1.1-0.9-2.4,0.2-5.6-0.1c-1.1,0.7-13.2,0.8-12.8,0.3c-2,2.3-4.7,2.8-3,0.5c0.8-1.1,0.1,1.2-6.2,0.6
	c-1.6-0.2-2.5-2.2-26.6,1.7c4-4-3.2-1.1-5.2-1.8c-1,0.9-3.6,0.3-4.3,0.5l-0.8-0.4c0.2-0.7-0.7,1.6-2.9,0c0.5,1.7-1.8-0.5-1.6,0.6
	c-1.7-2.5-11,1.6-11.4-1.2c-8.4,3.3-6.6-2.8-33.7,0.1c0.1-0.3-0.1-0.7,0.2-0.9c-7.8-1.3-17.6-0.1-26-1.7C115,3.9,100.7,6,66.3,4.5
	c-0.6,2-6.6-0.9-7.7-0.4c-0.8,0-1.9-0.2-1.7-0.7c-0.2,0.9-2.7-0.3-1.6,1.2c-0.9-0.5-0.1,0.1-2.3-0.4c-2.8-0.3,0.5-0.3-11.9,0.3
	c-1.1,0-2.6-0.2-2-0.6c-6.2,1.2-15.6,0.5-22,1.2C12,5,18.6,4.8,4.1,4.5c-1.8,0.8-7.2,8.1,0.2,6.1C4.5,9.4,5.6,9.2,8,11.3L7.3,11
	c-0.4,0.4,2.6-1.2,1.3,0.1c-0.2,0.6,2.8-2.6,2.2-0.2c2.4-0.4,2.6-0.7,6,1.1c-0.3-0.7,0.7-1.3,3.7-1.4c-1.3-0.7-0.4-1.9,2,0.2
	c1.2,0.3,2.5,0.9,4.1,0.1L26.3,11c4.3-3.8,1.1,1.5,7.6-2.6c-1,2.1-1.6,0.7,3.4,0.3c-1.3,1.8-1.4,1.5-1.6,3.2
	c3.4-2.6,2.3,1.7,10.2-3.4c-0.5,1,0.3,1.4-0.6,2.2c-1.3,0.8,3.2-1.9,1.7,0.8c2.6-2.8,1.3-1.8,5.8-3.1c-1,0.4-0.7,0.9-0.3,1.4
	c-0.3,0.4,2.4-1.8,1.4,0.9c-0.4,0.5,1.5-2,0.9-0.1c4.9-0.9,3,0.9,15.5,0.7c-0.8-0.4-1.5-1.3,3.9,0c-0.2-1.5,3.4,1.6,3.2-1
	c-0.5,0.5,8.7-1.8,7.1,0.8c2.7-1.4-0.1,1.2,5.7-0.1c-0.1,0.1,0,0.2-0.1,0.3c1.2-0.9,3.1,0.6,4.6-0.9c9.7-2.6,3.7,0.7,21.3,0.2
	l-1.5,1.2c5.4-0.6,12.3-1.7,14.8,0.4c-0.2-0.2,2.7-1.9,3.2-0.4c3.4-1.2,13.9-0.9,12.9,1.3c1.9-0.5,0.5-0.7,2.4-1.1
	c-0.5,0.4,0.8,0.4-0.3,0.8c3.5,0.6,3.1-1.1,7.2,0.3c-1.6-0.5,4.9-1.2,3.5,0.2c2.2-1.7-2.3,1.5,10-1.9c-1.1,2.2,1.9-1.7,4.7,0.4
	c1.1,0.3,0.4-2.7,4.4,0.2c0.1-0.4,1.5-0.4,1.4-0.8c0.4,1.3,0.2,3.5,12.4-0.6c-1-0.1,2.3,2.5,9.3,1c-3.1,4.3,4.6-2.3,7.7,2
	c2.1-0.6,4.7,0.1,6-1.2c5.5-0.2,14.9-0.1,18.8-2.1c-1.2,3.5,1.1-2.2,16.4,0.4C252.2,10.8,254.5,8.1,260,6z"/>
</svg>
